<?xml version="1.0" encoding="UTF-8" standalone="no"?>
<!DOCTYPE svg PUBLIC "-//W3C//DTD SVG 1.1//EN" "http://www.w3.org/Graphics/SVG/1.1/DTD/svg11.dtd">
<svg xmlns="http://www.w3.org/2000/svg" version="1.1" viewBox="0.00 0.00 100.00 100.00">
<path fill="#ffffff" d="
  M 50.57 60.32
  Q 53.96 63.34 57.08 67.02
  Q 59.73 70.15 57.24 73.47
  Q 57.12 73.62 56.96 73.72
  Q 53.22 75.92 50.65 73.35
  Q 37.20 59.93 23.71 46.47
  Q 20.72 43.48 23.53 40.32
  Q 23.61 40.23 23.65 40.19
  Q 26.46 37.03 29.70 39.75
  Q 34.26 43.57 36.31 46.21
  A 0.56 0.56 0.0 0 0 37.18 46.22
  L 62.77 15.39
  A 4.36 4.35 15.7 0 1 65.50 13.86
  Q 74.06 12.60 83.48 11.19
  Q 84.75 11.00 85.18 11.38
  A 1.98 1.97 -65.2 0 1 85.83 13.16
  Q 84.58 21.69 83.18 31.78
  Q 83.00 33.04 82.02 33.86
  L 50.57 60.01
  A 0.21 0.20 45.8 0 0 50.57 60.32
  Z
  M 42.79 52.63
  L 44.35 54.19
  A 0.79 0.79 0.0 0 0 45.46 54.19
  L 73.86 25.89
  A 1.98 1.55 -44.9 0 0 74.17 23.39
  L 73.69 22.91
  A 1.98 1.55 -44.9 0 0 71.19 23.21
  L 42.80 51.51
  A 0.79 0.79 0.0 0 0 42.79 52.63
  Z"
/>
<path fill="#ffffff" d="
  M 37.09 66.50
  A 1.41 1.41 0.0 0 1 37.09 68.50
  L 25.90 79.68
  A 6.17 5.86 -45.0 0 1 17.40 79.90
  L 17.20 79.70
  A 6.17 5.86 -45.0 0 1 17.42 71.20
  L 28.60 60.01
  A 1.41 1.41 0.0 0 1 30.60 60.01
  L 37.09 66.50
  Z"
/>
</svg>
