
<?xml version="1.0" encoding="UTF-8" standalone="no"?>
<!DOCTYPE svg PUBLIC "-//W3C//DTD SVG 1.1//EN" "http://www.w3.org/Graphics/SVG/1.1/DTD/svg11.dtd">
<svg xmlns="http://www.w3.org/2000/svg" version="1.1" viewBox="0.00 0.00 100.00 100.00">
<path fill="#FFFFFF" d="
  M 32.42 60.97
  L 69.22 24.18
  A 1.03 1.03 0.0 0 0 69.23 22.73
  C 67.91 21.38 65.52 19.70 65.63 17.60
  Q 65.80 14.22 69.26 14.23
  Q 74.54 14.26 79.55 14.23
  A 3.19 3.18 -89.9 0 1 82.74 17.44
  Q 82.70 21.86 82.82 27.16
  C 82.87 29.49 81.81 31.75 79.07 31.45
  C 77.16 31.24 75.87 29.29 74.55 28.04
  Q 73.54 27.08 72.55 28.06
  L 70.17 30.39
  Q 69.11 31.43 70.04 32.59
  Q 73.01 36.29 74.58 39.57
  Q 83.67 58.54 70.27 75.22
  C 68.78 77.08 69.90 78.24 71.13 79.65
  A 1.35 1.34 46.8 0 1 71.08 81.47
  L 68.38 84.23
  A 1.21 1.20 -47.7 0 1 66.75 84.31
  Q 64.49 82.43 62.47 80.05
  C 61.73 79.19 61.74 78.24 61.42 77.22
  A 1.14 1.14 0.0 0 0 60.51 76.43
  L 28.37 71.59
  Q 25.80 71.21 25.42 68.64
  L 20.56 36.29
  A 0.90 0.89 -84.5 0 0 19.98 35.58
  Q 19.19 35.30 18.34 35.31
  Q 17.75 35.32 17.33 34.91
  L 13.09 30.84
  Q 11.87 29.68 13.05 28.48
  L 15.32 26.17
  Q 16.51 24.95 17.73 26.14
  Q 18.81 27.20 20.24 27.47
  A 1.17 1.13 -58.6 0 0 21.18 27.23
  Q 25.85 23.39 28.46 22.18
  Q 44.63 14.69 59.81 23.68
  A 1.76 1.76 0.0 0 1 60.16 26.44
  L 56.69 29.90
  Q 55.83 30.76 54.76 30.17
  Q 40.87 22.61 27.57 31.55
  A 1.72 1.71 69.1 0 0 26.83 33.23
  L 30.90 60.47
  Q 31.17 62.22 32.42 60.97
  Z
  M 36.23 66.09
  L 63.79 70.19
  A 1.63 1.63 0.0 0 0 65.33 69.55
  C 72.30 60.25 71.83 47.21 64.37 38.63
  A 1.59 1.59 0.0 0 0 62.04 38.55
  L 35.80 64.80
  A 0.76 0.76 0.0 0 0 36.23 66.09
  Z"
/>
</svg>
