
<?xml version="1.0" encoding="UTF-8" standalone="no"?>
<!DOCTYPE svg PUBLIC "-//W3C//DTD SVG 1.1//EN" "http://www.w3.org/Graphics/SVG/1.1/DTD/svg11.dtd">
<svg xmlns="http://www.w3.org/2000/svg" version="1.1" viewBox="0.00 0.00 100.00 100.00">
<path fill="#FFFFFF" d="
  M 84.73 41.43
  C 84.55 62.01 71.08 78.41 51.48 84.13
  Q 50.33 84.47 49.15 84.21
  C 28.91 79.85 14.66 61.52 14.64 41.31
  Q 14.62 30.98 14.66 20.80
  Q 14.66 18.02 15.95 16.43
  Q 17.73 14.22 20.40 14.23
  Q 49.25 14.30 78.39 14.21
  C 81.89 14.20 84.64 16.23 84.68 20.04
  Q 84.82 31.18 84.73 41.43
  Z
  M 54.35 42.07
  Q 52.55 42.07 53.43 40.49
  L 60.29 28.25
  A 1.56 1.56 0.0 0 0 58.95 25.92
  L 50.52 25.82
  A 1.75 1.74 -74.7 0 0 48.99 26.70
  L 37.53 46.75
  A 1.67 1.67 0.0 0 0 38.98 49.25
  L 45.00 49.25
  Q 46.23 49.25 45.78 50.40
  Q 42.58 58.66 39.45 66.65
  Q 39.22 67.24 39.36 67.87
  A 0.53 0.53 0.0 0 0 40.22 68.15
  Q 41.36 67.13 42.35 66.05
  Q 51.70 55.82 61.78 44.63
  A 1.45 1.44 -54.5 0 0 61.41 42.39
  C 59.97 41.59 56.03 42.07 54.35 42.07
  Z"
/>
</svg>
