<?xml version="1.0" encoding="UTF-8" standalone="no"?>
<!DOCTYPE svg PUBLIC "-//W3C//DTD SVG 1.1//EN" "http://www.w3.org/Graphics/SVG/1.1/DTD/svg11.dtd">
<svg xmlns="http://www.w3.org/2000/svg" version="1.1" viewBox="0.00 0.00 100.00 100.00">
<path fill="#C14755" d="
  M 69.82 27.06
  L 72.52 25.22
  A 1.21 1.21 0.0 0 1 74.38 26.01
  Q 76.46 37.54 67.78 43.77
  C 58.25 50.61 44.60 45.02 42.27 33.83
  Q 40.30 24.42 47.62 17.69
  A 0.91 0.91 0.0 0 1 49.06 17.97
  L 50.77 21.62
  A 0.43 0.43 0.0 0 0 51.56 21.58
  Q 53.93 14.83 50.65 9.01
  Q 50.33 8.44 50.50 7.82
  Q 50.74 6.92 51.65 7.15
  Q 66.89 11.03 69.17 26.78
  Q 69.27 27.43 69.82 27.06
  Z
  M 58.86 31.29
  Q 57.94 27.80 59.45 25.23
  Q 60.48 23.50 58.70 24.44
  Q 53.35 27.27 52.12 32.87
  C 51.32 36.48 52.22 39.99 55.82 41.40
  C 63.45 44.39 68.15 34.46 62.11 29.84
  A 0.75 0.73 -41.7 0 0 61.27 29.80
  Q 60.68 30.15 60.53 30.82
  Q 60.40 31.38 59.87 31.59
  Q 59.54 31.72 59.20 31.64
  A 0.50 0.49 1.1 0 1 58.86 31.29
  Z"
/>
<rect fill="#ffffff" x="-5.97" y="-13.19" transform="translate(21.50,61.44) rotate(-0.1)" width="11.94" height="26.38" rx="2.90"/>
<path fill="#ffffff" d="
  M 46.02 64.44
  Q 45.24 64.44 45.09 65.22
  Q 44.98 65.77 45.08 66.32
  Q 45.25 67.28 46.22 67.27
  Q 52.73 67.18 60.69 67.30
  C 64.98 67.36 68.12 64.64 68.25 60.27
  A 1.33 1.31 -6.9 0 1 69.23 59.04
  C 75.15 57.41 79.40 54.72 84.83 59.86
  Q 85.66 60.64 85.68 61.71
  A 1.41 1.40 -14.0 0 1 84.90 63.00
  Q 73.67 68.73 63.72 74.00
  C 57.14 77.49 52.16 78.34 45.26 76.07
  Q 38.21 73.76 31.27 71.39
  A 1.51 1.50 9.5 0 1 30.25 69.97
  L 30.24 52.45
  Q 30.24 51.56 31.12 51.44
  Q 37.26 50.54 43.02 52.30
  C 45.84 53.16 47.96 54.87 50.22 56.62
  A 1.42 1.41 -26.2 0 0 51.08 56.91
  L 61.50 56.86
  Q 64.14 56.85 65.22 59.71
  Q 65.42 60.24 65.36 60.85
  Q 65.02 64.42 61.44 64.43
  L 46.02 64.44
  Z"
/>
</svg>
