
<?xml version="1.0" encoding="UTF-8" standalone="no"?>
<!DOCTYPE svg PUBLIC "-//W3C//DTD SVG 1.1//EN" "http://www.w3.org/Graphics/SVG/1.1/DTD/svg11.dtd">
<svg xmlns="http://www.w3.org/2000/svg" version="1.1" viewBox="0.00 0.00 100.00 100.00">
<path fill="#FFFFFF" d="
  M 63.65 22.33
  C 62.83 22.16 61.84 22.11 61.31 21.37
  Q 60.89 20.81 61.25 20.18
  Q 61.51 19.74 62.02 19.68
  Q 66.12 19.22 66.58 14.97
  Q 66.65 14.37 67.25 14.27
  Q 68.60 14.04 68.80 15.39
  Q 69.43 19.54 73.50 19.67
  Q 74.24 19.69 74.26 20.44
  L 74.28 20.96
  Q 74.31 22.06 73.21 22.09
  Q 69.37 22.20 68.77 26.52
  Q 68.64 27.46 67.69 27.42
  L 67.22 27.40
  A 0.70 0.70 0.0 0 1 66.55 26.72
  C 66.49 25.13 65.46 22.69 63.65 22.33
  Z"
/>
<path fill="#FFFFFF" d="
  M 37.93 30.95
  C 41.52 28.99 43.32 25.80 43.69 21.80
  A 0.98 0.98 0.0 0 1 44.26 21.01
  Q 45.86 20.29 46.97 21.32
  A 1.36 1.33 20.5 0 1 47.39 22.22
  Q 47.75 27.85 53.02 30.91
  C 54.47 31.76 56.20 31.84 57.80 32.33
  Q 58.30 32.48 58.47 32.96
  Q 58.86 34.04 58.40 35.07
  Q 58.17 35.60 57.59 35.67
  Q 48.83 36.72 47.25 45.84
  A 1.61 1.60 85.8 0 1 46.16 47.11
  C 45.10 47.45 43.69 47.06 43.61 45.78
  Q 43.22 39.66 38.11 36.96
  C 36.58 36.15 34.87 36.08 33.22 35.62
  Q 32.69 35.47 32.54 34.95
  Q 32.25 34.00 32.45 33.07
  Q 32.55 32.60 33.00 32.42
  C 34.63 31.76 36.41 31.79 37.93 30.95
  Z"
/>
<path fill="#FFFFFF" d="
  M 72.58 52.90
  C 72.41 49.30 70.16 46.50 66.50 46.37
  Q 65.75 46.35 65.43 45.67
  Q 64.97 44.65 65.54 43.89
  Q 65.87 43.47 66.40 43.42
  Q 72.11 42.85 72.50 37.24
  Q 72.57 36.24 73.58 36.23
  L 74.41 36.23
  A 1.01 1.00 88.5 0 1 75.41 37.19
  Q 75.74 42.91 81.71 43.46
  A 1.04 1.04 0.0 0 1 82.65 44.52
  L 82.63 45.35
  Q 82.60 46.31 81.64 46.38
  Q 75.88 46.76 75.37 52.73
  A 0.85 0.84 87.4 0 1 74.67 53.50
  Q 73.83 53.64 73.04 53.46
  A 0.60 0.59 -85.0 0 1 72.58 52.90
  Z"
/>
<rect fill="#ffffff" x="12.53" y="53.12" width="11.94" height="26.32" rx="2.92"/>
<path fill="#ffffff" d="
  M 43.02 71.88
  Q 50.96 71.87 58.84 71.88
  C 63.35 71.89 64.89 68.40 65.40 64.60
  Q 65.47 64.09 65.96 63.94
  L 72.08 62.03
  Q 75.88 60.85 79.36 62.78
  Q 80.52 63.42 81.54 64.33
  Q 84.17 66.68 81.03 68.29
  Q 70.33 73.76 58.67 79.77
  C 53.52 82.42 48.76 82.89 43.09 81.12
  Q 35.45 78.74 28.06 76.10
  Q 27.25 75.81 27.25 74.95
  L 27.24 57.28
  A 1.29 1.28 -3.6 0 1 28.37 56.01
  Q 39.49 54.66 46.97 61.25
  Q 47.39 61.63 47.96 61.64
  Q 53.22 61.79 58.67 61.79
  Q 61.92 61.78 62.38 65.36
  Q 62.44 65.83 62.27 66.28
  Q 61.17 69.27 58.40 69.26
  Q 51.46 69.24 43.29 69.24
  Q 42.14 69.24 41.98 70.38
  L 41.94 70.63
  Q 41.76 71.88 43.02 71.88
  Z"
/>
</svg>
